# xmcd
#
# Track frame offsets: 
#        150
#        25150
#        37844
#        74641
#        96691
#        103116
#        136974
#        160281
#        177816
#        183611
#        203884
#        221327
#
# Disc length: 3402 seconds
#
# Revision: 0
# Processed by: cddbd v1.5.2PL0 Copyright (c) Steve Scherf et al.
# Submitted via: ExactAudioCopy v1.0b3
#
DISCID=af0d480c
DTITLE=Mothers Cake - Creation's Finest
DYEAR=2013
DGENRE=Progressive Rock
TTITLE0=Creation's Finest
TTITLE1=The Road
TTITLE2=Runaway
TTITLE3=Night And Day
TTITLE4=A Path Down Under
TTITLE5=Realitricked Me
TTITLE6=Nobody
TTITLE7=I Like It
TTITLE8=Pan's Requiem
TTITLE9=Lazy
TTITLE10=Soul Prison [Part I]
TTITLE11=Soul Prison [Part II]
EXTD=
EXTT0=
EXTT1=
EXTT2=
EXTT3=
EXTT4=
EXTT5=
EXTT6=
EXTT7=
EXTT8=
EXTT9=
EXTT10=
EXTT11=
PLAYORDER=
